<?xml version="1.0" encoding="UTF-8" standalone="no"?>
<!DOCTYPE svg PUBLIC "-//W3C//DTD SVG 1.1//EN" "http://www.w3.org/Graphics/SVG/1.1/DTD/svg11.dtd">
<svg width="100%" height="100%" viewBox="0 0 48 14" version="1.1" xmlns="http://www.w3.org/2000/svg" xmlns:xlink="http://www.w3.org/1999/xlink" xml:space="preserve" style="fill-rule:evenodd;clip-rule:evenodd;stroke-linejoin:round;stroke-miterlimit:1.41421;">
    <g>
        <path d="M0,0L0,2L3,2L3,11L6,11L6,2L9,2L9,0L0,0Z" style="fill:white;"/>
        <path d="M10,0L10,11L13,11L13,5L15,5L15,11L18,11L18,4L17,4L17,3L13,3L13,0L10,0Z" style="fill:white;"/>
        <path d="M19,3L19,10L20,10L20,11L27,11L27,3L24,3L24,9L22,9L22,3L19,3Z" style="fill:white;"/>
        <path d="M28,3L28,11L31,11L31,5L32,5L32,11L35,11L35,5L36,5L36,11L39,11L39,4L38,4L38,3L28,3Z" style="fill:white;"/>
        <path d="M47,3L47,4L48,4L48,10L47,10L47,11L43,11L43,14L40,14L40,3L47,3ZM45,9L45,5L43,5L43,9L45,9Z" style="fill:white;"/>
    </g>
</svg>
